<?xml version="1.0" encoding="UTF-8" standalone="no"?>
<svg xmlns:rdf="http://www.w3.org/1999/02/22-rdf-syntax-ns#" xmlns="http://www.w3.org/2000/svg" xml:space="preserve" height="147.34" viewBox="0 0 370.76172 147.34016" width="370.76" version="1.1" xmlns:cc="http://creativecommons.org/ns#" xmlns:dc="http://purl.org/dc/elements/1.1/"><g transform="matrix(1.25 0 0 -1.25 -500.53 1040)"><g transform="translate(1.1268 .75117)"><path d="m400.42 733.49h295.01v96.897h-295.01v-96.897z" fill="#d61a0c"/><path d="m400.42 714.11h295.01v14.529h-295.01v-14.529z" fill="#e08600"/><path d="m303.71 30.275c-23.201 0-40.869 17.653-40.869 40.861 0 23.238 17.668 40.893 40.869 40.893 8.1944 0 15.748-2.2164 22.033-6.1152l-25.561-32.982v20.766h-14.357v-45.08h14.357v20.756l14.809-20.756h16.432l-15.996 21.672 20.746 26.174c5.2432-6.8477 8.4121-15.556 8.4121-25.326 0-23.208-17.678-40.861-40.875-40.861zm-243.69 17.534c-13.635 0-23.686 10.185-23.686 23.328 0 13.162 10.051 23.359 23.686 23.359 8.7998 0 16.043-4.3704 20.172-11.121l-8.959-5.8496c-2.3258 3.6347-6.0426 6.2891-10.971 6.2891-7.2297 0-12.23-5.733-12.23-12.678 0-6.9154 5.0007-12.668 12.23-12.668 4.9281 0 8.4259 2.5167 10.873 6.4082l9.1777-6.0254c-4.128-6.891-11.493-11.042-20.293-11.042zm100.69 0c-13.646 0-23.686 10.185-23.686 23.328 0 13.162 10.04 23.359 23.686 23.359 8.8144 0 16.04-4.3704 20.174-11.121l-8.9648-5.8496c-2.3354 3.6347-6.0533 6.2891-10.967 6.2891-7.2299 0-12.23-5.733-12.23-12.678 0-6.9154 5.0005-12.668 12.23-12.668 4.9135 0 8.4123 2.5167 10.869 6.4082l9.168-6.0254c-4.11-6.891-11.46-11.042-20.27-11.042zm-77.168 0.80859v45.08h11.602v-45.08h-11.602zm16.967 0v45.08h11.586v-18.9l12.07 18.9h13.684l-11.47-17.19c4.589-1.9238 8.3438-6.3847 8.3438-12.99 0-9.9104-7.0579-14.9-19.725-14.9h-14.479zm83.398 0v45.08h27.379v-10.27h-15.609v-34.811h-11.77zm31.145 0v45.08h29.68v-10.27h-18.08v-7.623h17.217v-9.4746h-17.217v-7.4785h18.031v-10.234h-29.631zm-102.96 9.5586h3.3281c4.7102 0 7.7891 2.0582 7.7891 6.6523 0 4.6912-3.2724 6.9414-7.8711 6.9414h-3.2461v-13.594zm-106.03 68.983v6.0586h368.76v-6.0586h-368.76z" transform="matrix(.8 0 0 -.8 395.57 835.22)" fill="#fefefe"/></g></g></svg>
