<?xml version="1.0" encoding="UTF-8" standalone="no"?>
<!-- Created with Inkscape (http://www.inkscape.org/) -->

<svg
   xmlns:dc="http://purl.org/dc/elements/1.1/"
   xmlns:cc="http://creativecommons.org/ns#"
   xmlns:rdf="http://www.w3.org/1999/02/22-rdf-syntax-ns#"
   xmlns:svg="http://www.w3.org/2000/svg"
   xmlns="http://www.w3.org/2000/svg"
   xmlns:sodipodi="http://sodipodi.sourceforge.net/DTD/sodipodi-0.dtd"
   xmlns:inkscape="http://www.inkscape.org/namespaces/inkscape"
   width="59.531261mm"
   height="32.77784mm"
   viewBox="0 0 59.531262 32.77784"
   version="1.1"
   id="svg8"
   inkscape:version="0.92.4 (unknown)"
   sodipodi:docname="coopmart.svg">
  <defs
     id="defs2" />
  <sodipodi:namedview
     id="base"
     pagecolor="#ffffff"
     bordercolor="#666666"
     borderopacity="1.0"
     inkscape:pageopacity="0.0"
     inkscape:pageshadow="2"
     inkscape:zoom="0.70136719"
     inkscape:cx="239.66036"
     inkscape:cy="5.2150523"
     inkscape:document-units="mm"
     inkscape:current-layer="layer1"
     showgrid="false"
     fit-margin-top="0"
     fit-margin-left="0"
     fit-margin-right="0"
     fit-margin-bottom="0"
     inkscape:window-width="1366"
     inkscape:window-height="692"
     inkscape:window-x="0"
     inkscape:window-y="21"
     inkscape:window-maximized="1" />
  <metadata
     id="metadata5">
    <rdf:RDF>
      <cc:Work
         rdf:about="">
        <dc:format>image/svg+xml</dc:format>
        <dc:type
           rdf:resource="http://purl.org/dc/dcmitype/StillImage" />
        <dc:title></dc:title>
      </cc:Work>
    </rdf:RDF>
  </metadata>
  <g
     inkscape:label="Layer 1"
     inkscape:groupmode="layer"
     id="layer1"
     transform="translate(-35.821507,-117.43531)">
    <g
       id="g866"
       transform="translate(-23.011603,4.1496334)">
      <path
         style="fill:#f6afcc;stroke-width:0.26458332"
         d="m 88.553272,144.34276 c 0.0011,-1.01864 0.04899,-1.40294 0.106272,-0.85399 0.05728,0.54895 0.05631,1.38238 -0.0021,1.85208 -0.05845,0.4697 -0.105313,0.0206 -0.104138,-0.99809 z m 18.897038,-0.83669 c 0.1819,-0.0734 0.47955,-0.0734 0.66145,0 0.18191,0.0734 0.0331,0.13346 -0.33073,0.13346 -0.3638,0 -0.51263,-0.0601 -0.33072,-0.13346 z m -3.28099,-2.20602 c 0,-1.23692 0.0456,-1.74294 0.10128,-1.12448 0.0557,0.61847 0.0557,1.6305 0,2.24896 -0.0557,0.61847 -0.10128,0.11245 -0.10128,-1.12448 z m -36.233216,0.99219 -0.504028,-0.59531 0.595313,0.50403 c 0.559447,0.47366 0.715761,0.68659 0.504028,0.68659 -0.05021,0 -0.318097,-0.26789 -0.595313,-0.59531 z m 16.297014,0.49542 c 0,-0.0549 0.208359,-0.2633 0.463021,-0.46302 0.419645,-0.32911 0.429003,-0.31975 0.0999,0.0999 -0.345644,0.44073 -0.562917,0.58089 -0.562917,0.36313 z m -19.711459,-1.48761 c 0.263389,-0.29104 0.538421,-0.52916 0.611181,-0.52916 0.07276,0 -0.08321,0.23812 -0.346597,0.52916 -0.263389,0.29104 -0.538421,0.52917 -0.611181,0.52917 -0.07276,0 0.08321,-0.23813 0.346597,-0.52917 z m 24.440209,-0.19843 c -0.329108,-0.41965 -0.319749,-0.42901 0.0999,-0.0999 0.254661,0.19972 0.463021,0.40808 0.463021,0.46302 0,0.21776 -0.217274,0.0776 -0.562917,-0.36312 z m 27.093312,-0.59532 c 0,-0.65484 0.0516,-0.92273 0.11466,-0.59531 0.0631,0.32742 0.0631,0.8632 0,1.19063 -0.0631,0.32742 -0.11466,0.0595 -0.11466,-0.59532 z m 1.32292,0 c 0,-0.65484 0.0516,-0.92273 0.11466,-0.59531 0.0631,0.32742 0.0631,0.8632 0,1.19063 -0.0631,0.32742 -0.11466,0.0595 -0.11466,-0.59532 z m -48.734511,-0.94809 c 0.01269,-0.30822 0.07539,-0.37092 0.159853,-0.15985 0.07643,0.19099 0.06703,0.4192 -0.02089,0.50712 -0.08792,0.0879 -0.150453,-0.0684 -0.138965,-0.34727 z m 46.744221,-0.55005 c 0.1819,-0.0734 0.47955,-0.0734 0.66145,0 0.18191,0.0734 0.0331,0.13345 -0.33073,0.13345 -0.3638,0 -0.51263,-0.06 -0.33072,-0.13345 z m 2.11666,0 c 0.1819,-0.0734 0.47956,-0.0734 0.66146,0 0.1819,0.0734 0.0331,0.13345 -0.33073,0.13345 -0.3638,0 -0.51263,-0.06 -0.33073,-0.13345 z m -17.4301,-0.81696 c -0.329109,-0.41965 -0.319751,-0.429 0.0999,-0.0999 0.44073,0.34565 0.58089,0.56292 0.36313,0.56292 -0.0549,0 -0.2633,-0.20836 -0.46302,-0.46302 z m -35.454168,-0.26458 c -0.329107,-0.41965 -0.319749,-0.42901 0.09989,-0.0999 0.254661,0.19972 0.463021,0.40808 0.463021,0.46302 0,0.21776 -0.217272,0.0776 -0.562916,-0.36312 z m 24.110833,0.36312 c 0,-0.0549 0.208359,-0.2633 0.463021,-0.46302 0.419645,-0.32911 0.429003,-0.31975 0.0999,0.0999 -0.345644,0.44073 -0.562917,0.58088 -0.562917,0.36312 z m 26.159995,-0.36312 c -0.3291,-0.41965 -0.31974,-0.42901 0.0999,-0.0999 0.44073,0.34564 0.58089,0.56292 0.36313,0.56292 -0.055,0 -0.2633,-0.20836 -0.46303,-0.46302 z m 1.14367,-0.72761 c 0.005,-0.43656 0.0647,-0.58312 0.13177,-0.32569 0.0671,0.25743 0.0627,0.61462 -0.01,0.79375 -0.0725,0.17913 -0.12737,-0.0315 -0.12197,-0.46806 z m -53.298978,-0.0429 c 0.181901,-0.0734 0.479557,-0.0734 0.661458,0 0.181901,0.0734 0.03307,0.13346 -0.330729,0.13346 -0.363802,0 -0.51263,-0.0601 -0.330729,-0.13346 z m 3.083716,-0.42008 -0.504029,-0.59531 0.595313,0.50403 c 0.559447,0.47366 0.715762,0.68659 0.504028,0.68659 -0.05021,0 -0.318097,-0.26789 -0.595312,-0.59531 z m 5.118367,0.42008 c 0.181901,-0.0734 0.479558,-0.0734 0.661459,0 0.181901,0.0734 0.03307,0.13346 -0.33073,0.13346 -0.363802,0 -0.51263,-0.0601 -0.330729,-0.13346 z m 10.31875,0 c 0.181901,-0.0734 0.479558,-0.0734 0.661459,0 0.181901,0.0734 0.03307,0.13346 -0.330729,0.13346 -0.363802,0 -0.512631,-0.0601 -0.33073,-0.13346 z m 9.260417,0 c 0.181901,-0.0734 0.479557,-0.0734 0.661459,0 0.181901,0.0734 0.03307,0.13346 -0.33073,0.13346 -0.363802,0 -0.51263,-0.0601 -0.330729,-0.13346 z m 26.830838,-0.35393 c 0,-0.36381 0.0601,-0.51263 0.13345,-0.33073 0.0734,0.1819 0.0734,0.47955 0,0.66146 -0.0734,0.1819 -0.13345,0.0331 -0.13345,-0.33073 z m -49.518859,0.16468 c 0,-0.0549 0.20836,-0.2633 0.463021,-0.46302 0.419644,-0.3291 0.429002,-0.31975 0.0999,0.0999 -0.345644,0.44073 -0.562916,0.58089 -0.562916,0.36312 z m 20.658389,-0.89229 c 0.01259,-0.27933 0.07405,-0.33116 0.15489,-0.13064 0.0737,0.18281 0.261289,0.25371 0.416867,0.15756 0.16719,-0.10333 0.205663,-0.0499 0.09408,0.13064 -0.285327,0.46167 -0.689457,0.36604 -0.665835,-0.15756 z m -6.420498,-0.51147 c 0.190995,-0.0764 0.419198,-0.067 0.507119,0.0209 0.08792,0.0879 -0.06835,0.15045 -0.347266,0.13896 -0.308226,-0.0127 -0.370919,-0.0754 -0.159853,-0.15985 z m 30.476688,-6.56613 c 0.34178,-0.3638 0.68094,-0.66146 0.7537,-0.66146 0.0728,0 -0.14734,0.29766 -0.48911,0.66146 -0.34178,0.3638 -0.68094,0.66146 -0.7537,0.66146 -0.0728,0 0.14734,-0.29766 0.48911,-0.66146 z m -27.021246,-0.0661 c -0.329107,-0.41964 -0.319749,-0.429 0.0999,-0.0999 0.254662,0.19972 0.463021,0.40808 0.463021,0.46302 0,0.21776 -0.217273,0.0776 -0.562917,-0.36313 z m 6.582188,-2.09346 c 0.181901,-0.0734 0.479557,-0.0734 0.661459,0 0.181901,0.0734 0.03307,0.13346 -0.33073,0.13346 -0.363802,0 -0.51263,-0.0601 -0.330729,-0.13346 z m 23.105788,-3.41869 c 0.0127,-0.30822 0.0754,-0.37092 0.15985,-0.15985 0.0764,0.19099 0.067,0.4192 -0.0209,0.50712 -0.0879,0.0879 -0.15045,-0.0684 -0.13896,-0.34727 z m -32.238675,-0.90399 c 0,-0.50933 0.05445,-0.71769 0.121002,-0.46302 0.06655,0.25466 0.06655,0.67138 0,0.92604 -0.06655,0.25466 -0.121002,0.0463 -0.121002,-0.46302 z m 12.151225,0 c 0,-0.36381 0.06006,-0.51263 0.133453,-0.33073 0.0734,0.1819 0.0734,0.47955 0,0.66146 -0.0734,0.1819 -0.133453,0.0331 -0.133453,-0.33073 z m 1.5875,-1.05834 c 0,-0.3638 0.06005,-0.51263 0.133453,-0.33073 0.0734,0.18191 0.0734,0.47956 0,0.66146 -0.0734,0.1819 -0.133453,0.0331 -0.133453,-0.33073 z m 18.49995,0.11025 c 0.0127,-0.30823 0.0754,-0.37092 0.15985,-0.15986 0.0764,0.191 0.067,0.4192 -0.0209,0.50712 -0.0879,0.0879 -0.15045,-0.0683 -0.13896,-0.34726 z m -23.089251,-3.46599 c 0.190994,-0.0764 0.419198,-0.067 0.507119,0.0209 0.08792,0.0879 -0.06835,0.15045 -0.347266,0.13897 -0.308226,-0.0127 -0.370919,-0.0754 -0.159853,-0.15986 z m 7.193359,-2.06822 c 0.341776,-0.3638 0.68094,-0.66145 0.753702,-0.66145 0.0728,0 -0.147343,0.29765 -0.489119,0.66145 -0.341775,0.36381 -0.680939,0.66146 -0.7537,0.66146 -0.07276,0 0.147342,-0.29765 0.489117,-0.66146 z m 13.209142,-0.0661 -0.64143,-0.72761 0.7276,0.64144 c 0.40018,0.35279 0.7276,0.68021 0.7276,0.7276 0,0.20751 -0.21425,0.0386 -0.81377,-0.64143 z m -27.232059,0.36313 c 0,-0.055 0.20836,-0.26331 0.463021,-0.46303 0.419645,-0.3291 0.429003,-0.31974 0.0999,0.0999 -0.345644,0.44073 -0.562917,0.58089 -0.562917,0.36313 z"
         id="path880"
         inkscape:connector-curvature="0" />
      <path
         style="fill:#f286b1;stroke-width:0.26458332"
         d="m 62.735722,143.50607 c 0.181901,-0.0734 0.479557,-0.0734 0.661458,0 0.181901,0.0734 0.03307,0.13346 -0.330729,0.13346 -0.363802,0 -0.51263,-0.0601 -0.330729,-0.13346 z m 8.202083,0 c 0.181901,-0.0734 0.479558,-0.0734 0.661459,0 0.181901,0.0734 0.03307,0.13346 -0.33073,0.13346 -0.363802,0 -0.51263,-0.0601 -0.330729,-0.13346 z m 10.31875,0 c 0.181901,-0.0734 0.479558,-0.0734 0.661459,0 0.181901,0.0734 0.03307,0.13346 -0.330729,0.13346 -0.363802,0 -0.512631,-0.0601 -0.33073,-0.13346 z m 9.541537,-0.005 c 0.190995,-0.0764 0.419198,-0.067 0.507119,0.0209 0.08792,0.0879 -0.06835,0.15045 -0.347266,0.13896 -0.308226,-0.0127 -0.370919,-0.0754 -0.159853,-0.15985 z m 5.959398,-1.93593 c 0,-1.09141 0.0467,-1.53789 0.103786,-0.99219 0.05708,0.5457 0.05708,1.43867 0,1.98437 -0.05708,0.54571 -0.103786,0.0992 -0.103786,-0.99218 z m 15.35585,-0.92605 c 5.3e-4,-1.60072 0.0442,-2.22146 0.0968,-1.3794 0.0527,0.84206 0.0522,2.15175 -10e-4,2.91042 -0.0533,0.75867 -0.0964,0.0697 -0.0957,-1.53102 z m -7.22183,-0.022 c 0.0127,-0.30822 0.0754,-0.37091 0.15985,-0.15985 0.0764,0.191 0.067,0.4192 -0.0209,0.50712 -0.0879,0.0879 -0.15045,-0.0684 -0.13896,-0.34727 z m -29.633337,-1.05833 c 0.01269,-0.30822 0.07539,-0.37092 0.159852,-0.15985 0.07643,0.19099 0.06703,0.4192 -0.02089,0.50712 -0.08792,0.0879 -0.150453,-0.0684 -0.138964,-0.34727 z m 8.73125,0 c 0.0127,-0.30822 0.07539,-0.37092 0.159851,-0.15985 0.07643,0.19099 0.06703,0.4192 -0.02088,0.50712 -0.08792,0.0879 -0.150453,-0.0684 -0.138965,-0.34727 z m 17.921167,-1.87848 c 0.191,-0.0764 0.4192,-0.067 0.50712,0.0209 0.0879,0.0879 -0.0683,0.15046 -0.34726,0.13897 -0.30823,-0.0127 -0.37092,-0.0754 -0.15986,-0.15985 z m 5.82084,0 c 0.19099,-0.0764 0.41919,-0.067 0.50711,0.0209 0.0879,0.0879 -0.0683,0.15046 -0.34726,0.13897 -0.30823,-0.0127 -0.37092,-0.0754 -0.15985,-0.15985 z m -10.946825,-8.55052 c 0,-4.00182 0.03677,-5.63893 0.08172,-3.63802 0.04495,2.00091 0.04495,5.27513 0,7.27604 -0.04495,2.00091 -0.08172,0.3638 -0.08172,-3.63802 z m -25.830263,6.43384 c 0.190996,-0.0764 0.419199,-0.067 0.507118,0.0209 0.08792,0.0879 -0.06835,0.15045 -0.347266,0.13896 -0.308224,-0.0127 -0.370919,-0.0754 -0.159852,-0.15985 z m 44.276798,-13.04842 c 0,-0.36381 0.0601,-0.51263 0.13346,-0.33073 0.0734,0.1819 0.0734,0.47955 0,0.66146 -0.0734,0.1819 -0.13346,0.0331 -0.13346,-0.33073 z"
         id="path878"
         inkscape:connector-curvature="0" />
      <path
         style="fill:#ee5593;stroke-width:0.26458332"
         d="m 99.93249,141.56464 c 0,-1.09141 0.0467,-1.53789 0.10379,-0.99219 0.0571,0.5457 0.0571,1.43867 0,1.98437 -0.05709,0.54571 -0.10379,0.0992 -0.10379,-0.99218 z m 1.06008,-0.1323 c 0.001,-1.16416 0.0475,-1.6075 0.10337,-0.98519 0.0559,0.62231 0.0551,1.57481 -0.002,2.11667 -0.0568,0.54185 -0.10258,0.0327 -0.10162,-1.13148 z m 8.66144,1.77033 c -0.012,-0.19811 -0.16244,-0.26643 -0.35162,-0.15962 -0.26257,0.14823 -0.26347,0.11419 -0.004,-0.16519 0.37634,-0.40585 0.72124,-0.18931 0.51588,0.32389 -0.11413,0.2852 -0.1427,0.28536 -0.15985,7.9e-4 z m 1.03744,-2.40974 c 0,-1.85146 -0.0974,-2.66306 -0.33073,-2.75723 -0.19757,-0.0797 -0.14431,-0.14186 0.13229,-0.15434 0.4129,-0.0186 0.46302,0.27983 0.46302,2.75723 0,1.52797 -0.0595,2.77813 -0.13229,2.77813 -0.0728,0 -0.13229,-1.1807 -0.13229,-2.62379 z m 2.46594,0.50712 c 0,-0.94588 0.048,-1.33284 0.10671,-0.85989 0.0587,0.47294 0.0587,1.24685 0,1.71979 -0.0587,0.47294 -0.10671,0.086 -0.10671,-0.8599 z m -4.08719,-2.05052 c -0.32911,-0.41964 -0.31975,-0.429 0.0999,-0.0999 0.44073,0.34564 0.58088,0.56291 0.36312,0.56291 -0.0549,0 -0.2633,-0.20836 -0.46302,-0.46302 z m -1.33877,-0.51147 c 0.19099,-0.0764 0.41919,-0.067 0.50711,0.0209 0.0879,0.0879 -0.0683,0.15045 -0.34726,0.13896 -0.30823,-0.0127 -0.37092,-0.0754 -0.15985,-0.15985 z m 10.36835,-0.32902 c 0,-0.13485 -0.20835,-0.29964 -0.46302,-0.36619 -0.34843,-0.091 -0.31569,-0.12859 0.1323,-0.15169 0.36641,-0.0189 0.59531,0.12191 0.59531,0.36618 0,0.21829 -0.0595,0.39688 -0.13229,0.39688 -0.0728,0 -0.1323,-0.11033 -0.1323,-0.24518 z m -5.02708,-0.12339 c 0,-0.0572 0.18478,-0.17489 0.41062,-0.26155 0.23546,-0.0904 0.34166,-0.046 0.24897,0.10398 -0.15538,0.25141 -0.65959,0.37186 -0.65959,0.15757 z m 2.59623,-0.34134 c 0.19099,-0.0764 0.41919,-0.067 0.50711,0.0209 0.0879,0.0879 -0.0683,0.15045 -0.34726,0.13896 -0.30823,-0.0127 -0.37092,-0.0754 -0.15985,-0.15985 z m -20.49001,-9.34426 c 0,-1.52797 0.04373,-2.15304 0.09718,-1.38906 0.05345,0.76398 0.05345,2.01414 0,2.77813 -0.05345,0.76398 -0.09718,0.1389 -0.09718,-1.38907 z m 6.3135,-6.08541 c 0,-0.50933 0.0545,-0.71769 0.121,-0.46302 0.0665,0.25466 0.0665,0.67138 0,0.92604 -0.0666,0.25466 -0.121,0.0463 -0.121,-0.46302 z m 8.99583,0 c 0,-0.50933 0.0545,-0.71769 0.121,-0.46302 0.0665,0.25466 0.0665,0.67138 0,0.92604 -0.0666,0.25466 -0.121,0.0463 -0.121,-0.46302 z m -21.36034,-3.175 c 0.26339,-0.29105 0.538421,-0.52917 0.611182,-0.52917 0.07276,0 -0.08321,0.23812 -0.346599,0.52917 -0.26339,0.29104 -0.538422,0.52916 -0.611182,0.52916 -0.07276,0 0.08321,-0.23812 0.346599,-0.52916 z m 15.95768,-1.23908 c 0.191,-0.0764 0.4192,-0.067 0.50712,0.0209 0.0879,0.0879 -0.0683,0.15045 -0.34726,0.13897 -0.30823,-0.0127 -0.37092,-0.0754 -0.15986,-0.15986 z m 1.5875,0 c 0.191,-0.0764 0.4192,-0.067 0.50712,0.0209 0.0879,0.0879 -0.0684,0.15045 -0.34726,0.13897 -0.30823,-0.0127 -0.37092,-0.0754 -0.15986,-0.15986 z m -14.830116,-4.76889 c 0.329118,-0.0633 0.805368,-0.0609 1.058333,0.005 0.252966,0.0662 -0.01633,0.11801 -0.598397,0.11507 -0.582084,-0.003 -0.789054,-0.0571 -0.459936,-0.12041 z m 13.758336,0 c 0.32912,-0.0633 0.80537,-0.0609 1.05833,0.005 0.25297,0.0662 -0.0163,0.11801 -0.5984,0.11507 -0.58208,-0.003 -0.78905,-0.0571 -0.45993,-0.12041 z"
         id="path876"
         inkscape:connector-curvature="0" />
      <path
         style="fill:#98c83a;stroke-width:0.26458332"
         d="m 104.81542,126.76261 c -2.68978,-0.85426 -3.89716,-3.80365 -2.59886,-6.34852 0.72753,-1.42609 2.08947,-2.20838 3.84468,-2.20838 5.44238,0 5.91833,7.96556 0.51695,8.65164 -0.57536,0.0731 -1.36861,0.0305 -1.76277,-0.0947 z m -13.570947,-1.69393 c -1.04454,-0.46881 -1.44903,-0.98867 -1.628172,-2.09261 -0.327675,-2.01923 1.600068,-3.72782 3.498911,-3.10114 1.987312,0.65587 2.62476,2.96648 1.238219,4.48827 -0.857332,0.94097 -2.004344,1.20124 -3.108958,0.70548 z"
         id="path874"
         inkscape:connector-curvature="0" />
      <path
         style="fill:#eb0374;stroke-width:0.26458332"
         d="m 96.933118,141.16776 c 0,-1.89618 0.08301,-2.33196 0.529167,-2.77812 0.615905,-0.61591 1.771491,-0.68847 2.5278,-0.15873 0.453335,0.31753 0.601235,0.31753 1.035485,0 0.81584,-0.59656 1.88664,-0.45679 2.50293,0.3267 0.4492,0.57106 0.54837,1.07348 0.54837,2.77812 0,1.89029 -0.0475,2.08099 -0.51847,2.08099 -0.46679,0 -0.52612,-0.21755 -0.59531,-2.18281 -0.0722,-2.0512 -0.11362,-2.18803 -0.68672,-2.26927 -1.0834,-0.15359 -1.3745,0.3759 -1.3745,2.5001 0,1.5587 -0.08,1.95198 -0.39688,1.95198 -0.31392,0 -0.39687,-0.37656 -0.39687,-1.80151 0,-2.06313 -0.367376,-2.79236 -1.337743,-2.65539 -0.618742,0.0873 -0.649949,0.18543 -0.723479,2.27409 -0.06919,1.96526 -0.128519,2.18281 -0.595313,2.18281 -0.474237,0 -0.518467,-0.19186 -0.518467,-2.24896 z m 9.554122,1.87973 c -1.26514,-0.70121 -1.70277,-2.41839 -0.97501,-3.82573 0.62675,-1.21199 2.41202,-1.72806 3.66261,-1.05877 0.40193,0.21511 0.59299,0.2194 0.66116,0.0149 0.0527,-0.15821 0.26679,-0.22208 0.47567,-0.14192 0.57045,0.2189 0.55405,5.38078 -0.0171,5.38078 -0.21828,0 -0.39688,-0.17859 -0.39688,-0.39688 0,-0.21828 -0.10448,-0.39687 -0.23219,-0.39687 -0.1277,0 -0.3804,0.17859 -0.56156,0.39687 -0.40379,0.48655 -1.76285,0.50091 -2.61671,0.0277 z m 3.26943,-1.85084 c 0.3336,-0.94709 -0.24281,-2.0109 -1.27545,-2.35397 -0.60268,-0.20022 -0.89631,-0.14584 -1.45521,0.26953 -0.79426,0.59029 -1.07286,1.97627 -0.52898,2.6316 0.90027,1.08476 2.79698,0.76639 3.25964,-0.54716 z m 2.52228,-0.53866 c 0,-2.0969 0.0828,-2.78095 0.33073,-2.73137 0.1819,0.0364 0.41507,0.18421 0.51815,0.32851 0.11967,0.16752 0.30618,0.14361 0.51594,-0.0661 0.54182,-0.54183 1.25311,-0.41127 1.09309,0.20065 -0.0761,0.29104 -0.35843,0.52916 -0.62738,0.52916 -0.74221,0 -1.08002,0.91599 -1.00607,2.72804 0.0554,1.35733 -0.009,1.6517 -0.37882,1.72286 -0.39511,0.0761 -0.44564,-0.23139 -0.44564,-2.71171 z m 4.66884,2.10991 c -0.60837,-0.56383 -0.70009,-0.85847 -0.70009,-2.24896 0,-1.41524 -0.0602,-1.60014 -0.52086,-1.60014 -0.35429,0 -0.47216,-0.12692 -0.36857,-0.39687 0.0838,-0.21828 0.31061,-0.39688 0.5041,-0.39688 0.20329,0 0.38681,-0.3621 0.43471,-0.85773 0.0546,-0.56489 0.24099,-0.88767 0.54593,-0.94544 0.37096,-0.0703 0.46302,0.10029 0.46302,0.85773 0,0.63173 0.1223,0.94544 0.36857,0.94544 0.20272,0 0.4371,0.1786 0.52087,0.39688 0.10359,0.26995 -0.0143,0.39687 -0.36857,0.39687 -0.45507,0 -0.52087,0.18414 -0.52087,1.4578 0,1.10807 0.12138,1.56172 0.50594,1.89099 0.46787,0.40061 0.48973,1.14913 0.0336,1.14913 -0.1087,0 -0.51268,-0.29197 -0.89774,-0.64882 z m -19.966166,-14.73652 0.08379,-8.03029 0.907478,-1.67375 c 0.998485,-1.84161 2.339618,-3.13408 4.215878,-4.06291 1.03224,-0.511 1.64595,-0.60723 3.87247,-0.60723 3.2015,0 4.55283,0.54179 6.63693,2.66097 4.22438,4.29548 2.80485,11.79814 -2.72396,14.39699 -0.65238,0.30665 -2.78609,0.96405 -4.74159,1.46089 -3.74801,0.95226 -5.660938,1.75706 -7.32495,3.08173 l -1.009825,0.80389 z m 10.867726,-1.40602 c 1.16462,-0.48661 2.20606,-1.70823 2.61235,-3.06431 0.77946,-2.60161 -1.55613,-5.54433 -4.40046,-5.54433 -2.84432,0 -5.17991,2.94272 -4.40045,5.54433 0.83607,2.79056 3.58547,4.15195 6.18856,3.06431 z m -17.398524,4.77895 c -3.043536,-0.74939 -4.99229,-2.25935 -6.272741,-4.86032 -0.780799,-1.58603 -0.870416,-2.00277 -0.86528,-4.02379 0.0048,-1.87515 0.123647,-2.50814 0.706485,-3.76172 1.432388,-3.0808 4.160517,-4.95381 7.545305,-5.18027 2.157008,-0.14431 3.940315,0.2192 5.428279,1.10652 l 1.008923,0.60164 -0.530622,0.67458 c -0.291844,0.37102 -0.837555,1.28566 -1.212694,2.03255 l -0.682067,1.35797 -0.663186,-0.52167 c -1.735894,-1.36545 -4.807556,-0.81664 -6.201815,1.10808 -1.020739,1.40909 -1.096227,3.60804 -0.170992,4.981 1.227182,1.82101 3.617822,2.54814 5.62307,1.7103 l 0.917544,-0.38338 v 2.47812 2.47812 l -1.33594,0.28651 c -1.571551,0.33703 -1.584735,0.3367 -3.294269,-0.0842 z"
         id="path872"
         inkscape:connector-curvature="0" />
      <path
         style="fill:#143c8a;stroke-width:0.26458332"
         d="m 87.275826,145.79797 c 0.452496,-0.19444 0.462079,-0.23008 0.06615,-0.24599 -0.422624,-0.017 -0.463021,-0.42255 -0.463021,-4.6488 0,-3.52562 0.0789,-4.63118 0.330729,-4.63426 0.220486,-0.003 0.198438,-0.0896 -0.06615,-0.26053 -0.301599,-0.19491 -0.192437,-0.25746 0.454718,-0.26054 0.613659,-0.003 0.812699,0.0973 0.712396,0.35869 -0.07655,0.1995 0.05075,0.43562 0.282903,0.5247 0.247735,0.0951 0.48406,5.3e-4 0.572098,-0.22892 0.0825,-0.21499 0.256587,-0.32502 0.386858,-0.24451 0.130273,0.0805 0.23686,0.0501 0.23686,-0.0677 0,-0.11773 0.595313,-0.21406 1.322917,-0.21406 0.727604,0 1.322916,0.0963 1.322916,0.21406 0,0.11773 0.106588,0.14818 0.236861,0.0677 0.13027,-0.0805 0.305128,0.0315 0.388569,0.24897 0.08344,0.21745 0.327017,0.39536 0.541277,0.39536 0.21426,0 0.474517,0.13746 0.57835,0.30546 0.121018,0.19581 0.07212,0.23336 -0.13621,0.10461 -0.237937,-0.14706 -0.231839,-0.0517 0.02275,0.35599 0.19127,0.30627 0.427038,0.55685 0.523931,0.55685 0.09689,0 0.113898,0.23813 0.03779,0.52917 -0.07737,0.29585 -0.0081,0.52917 0.157062,0.52917 0.162494,0 0.295442,0.17859 0.295442,0.39687 0,0.21828 -0.132948,0.39688 -0.295442,0.39688 -0.165179,0 -0.234428,0.23331 -0.157062,0.52916 0.07611,0.29104 0.02344,0.52917 -0.117049,0.52917 -0.140485,0 -0.214108,0.0893 -0.163607,0.19844 0.118652,0.25643 -1.580984,1.89714 -1.76974,1.70838 -0.0786,-0.0786 -0.142923,-0.0338 -0.142923,0.0996 0,0.1334 -0.643474,0.24254 -1.429943,0.24254 -0.786469,0 -1.389483,-0.0655 -1.34003,-0.14548 0.04945,-0.08 -0.121399,-0.27745 -0.379669,-0.43874 -0.836065,-0.52213 -1.141526,-0.0123 -1.042805,1.74041 l 0.09141,1.6229 -0.79375,-0.0191 c -0.682906,-0.0164 -0.719855,-0.0508 -0.264584,-0.24647 z m 4.365625,-3.71978 c 0,-0.15411 0.101524,-0.21746 0.225605,-0.14077 0.124082,0.0767 0.451504,-0.0442 0.727604,-0.26859 0.276101,-0.22441 0.323406,-0.33083 0.105125,-0.23649 -0.218282,0.0943 -0.15875,-0.021 0.132291,-0.25632 0.371462,-0.30034 0.538724,-0.77392 0.561232,-1.58904 0.02609,-0.94434 -0.09744,-1.27497 -0.661458,-1.77055 -0.381437,-0.33516 -0.782821,-0.58142 -0.891961,-0.54725 -0.109141,0.0342 -0.198438,-0.0569 -0.198438,-0.20246 0,-0.14552 -0.357187,-0.26458 -0.79375,-0.26458 -0.436562,0 -0.79375,0.1389 -0.79375,0.30868 0,0.16977 -0.08047,0.22821 -0.178808,0.12987 -0.236982,-0.23698 -1.432533,0.89632 -1.25263,1.18741 0.07686,0.12436 0.03748,0.22612 -0.08753,0.22612 -0.125005,0 -0.227283,0.41672 -0.227283,0.92604 0,0.50932 0.09525,0.92604 0.211667,0.92604 0.116417,0 0.184028,0.0893 0.150246,0.19844 -0.09532,0.30796 0.922502,1.37868 1.16695,1.2276 0.119563,-0.0739 0.217387,-0.008 0.217387,0.14585 0,0.15411 0.357188,0.2802 0.79375,0.2802 0.436563,0 0.79375,-0.12609 0.793751,-0.2802 z m -30.1625,0.9637 c 0,-0.13339 -0.07752,-0.16501 -0.172276,-0.0703 -0.09475,0.0948 -0.341707,-0.0342 -0.548788,-0.28663 -0.229841,-0.28014 -0.299616,-0.3043 -0.179118,-0.062 0.13201,0.26542 0.0071,0.22993 -0.377254,-0.10715 -0.605906,-0.53145 -0.770688,-0.83899 -0.290531,-0.54224 0.156828,0.0969 0.133103,-0.0662 -0.05296,-0.36414 -0.18539,-0.29686 -0.44506,-0.473 -0.577045,-0.39143 -0.134407,0.0831 -0.161463,-0.0991 -0.06151,-0.41399 0.105884,-0.33361 0.06361,-0.5623 -0.103946,-0.5623 -0.155328,0 -0.282413,-0.29766 -0.282413,-0.66146 0,-0.3638 0.131801,-0.66146 0.292891,-0.66146 0.16109,0 0.224357,-0.17859 0.140595,-0.39687 -0.08376,-0.21828 -0.06561,-0.39688 0.04034,-0.39688 0.105949,0 0.349127,-0.25058 0.540395,-0.55685 0.254605,-0.40769 0.260703,-0.50305 0.02276,-0.35599 -0.208329,0.12875 -0.257226,0.0912 -0.13621,-0.10461 0.103833,-0.168 0.364091,-0.30546 0.578351,-0.30546 0.21426,0 0.455212,-0.17108 0.535448,-0.38017 0.08397,-0.21883 0.323446,-0.31203 0.564267,-0.21962 0.23011,0.0883 0.350688,0.051 0.267952,-0.0829 -0.08447,-0.13668 0.476556,-0.24341 1.279513,-0.24341 0.786468,0 1.429943,0.10204 1.429943,0.22675 0,0.12471 0.20473,0.14818 0.454956,0.0522 0.250226,-0.096 0.370046,-0.0897 0.266266,0.0141 -0.103779,0.10378 0.04868,0.35495 0.338794,0.55816 0.290116,0.20321 0.527484,0.51597 0.527484,0.69503 0,0.45899 -0.960486,0.47801 -1.335249,0.0264 -0.171715,-0.20691 -0.417781,-0.31095 -0.546814,-0.2312 -0.129032,0.0798 -0.234604,0.0189 -0.234604,-0.13519 0,-0.15411 -0.357187,-0.2802 -0.79375,-0.2802 -0.436562,0 -0.79375,0.12609 -0.79375,0.2802 0,0.1541 -0.10666,0.21427 -0.237023,0.13371 -0.130363,-0.0806 -0.507609,0.0726 -0.838324,0.34041 -0.928182,0.7516 -0.889377,2.79691 0.07129,3.75734 0.393653,0.39355 0.780606,0.65068 0.859896,0.57139 0.07929,-0.0793 0.144164,-0.005 0.144164,0.16451 0,0.16978 0.357188,0.30869 0.79375,0.30869 0.436563,0 0.79375,-0.12609 0.79375,-0.2802 0,-0.15411 0.09782,-0.21974 0.217387,-0.14585 0.119563,0.0739 0.438318,-0.12367 0.708344,-0.43904 0.322193,-0.37629 0.528082,-0.46202 0.598961,-0.24938 0.0594,0.17821 0.197054,0.26898 0.305892,0.20171 0.108839,-0.0673 0.197888,0.0649 0.197888,0.29364 0,0.22877 -0.336916,0.62084 -0.748702,0.87126 -0.411787,0.25042 -0.699521,0.50449 -0.63941,0.5646 0.06011,0.0601 -0.59516,0.1093 -1.456158,0.1093 -0.860999,0 -1.565452,-0.10914 -1.565452,-0.24254 z m 0,-1.31257 c 0,-0.0549 -0.208359,-0.2633 -0.463021,-0.46302 -0.419644,-0.3291 -0.429002,-0.31975 -0.09989,0.0999 0.345644,0.44073 0.562916,0.58089 0.562916,0.36312 z m -1.142176,-2.33096 c -0.08446,-0.21107 -0.147157,-0.14837 -0.159853,0.15985 -0.01149,0.27892 0.05105,0.43519 0.138965,0.34727 0.08792,-0.0879 0.09732,-0.31613 0.02089,-0.50712 z m 9.337143,3.75378 c -0.0039,-0.0728 -0.474579,-0.42059 -1.045923,-0.77295 -0.571343,-0.35237 -0.977833,-0.73932 -0.90331,-0.8599 0.07452,-0.12058 0.01314,-0.21924 -0.136398,-0.21924 -0.149542,0 -0.203362,-0.17859 -0.119599,-0.39687 0.08376,-0.21828 0.05026,-0.39688 -0.07445,-0.39688 -0.12471,0 -0.226745,-0.41672 -0.226745,-0.92604 0,-0.50932 0.102035,-0.92604 0.226745,-0.92604 0.12471,0 0.158212,-0.17859 0.07445,-0.39688 -0.08376,-0.21828 -0.0437,-0.39687 0.08903,-0.39687 0.132727,0 0.448492,-0.35071 0.701701,-0.77936 0.253209,-0.42865 0.557597,-0.71928 0.676417,-0.64584 0.11882,0.0734 0.216037,4e-4 0.216037,-0.1623 0,-0.1627 0.119062,-0.22223 0.264583,-0.13229 0.145521,0.0899 0.264583,0.0672 0.264583,-0.0505 0,-0.11773 0.654844,-0.21406 1.455209,-0.21406 0.800364,0 1.455208,0.10204 1.455208,0.22675 0,0.12471 0.184778,0.15584 0.410617,0.0692 0.235459,-0.0904 0.341662,-0.046 0.248969,0.10398 -0.08891,0.14385 -0.03556,0.27644 0.118549,0.29463 0.154109,0.0182 0.429027,0.0534 0.610928,0.0782 0.181901,0.0248 0.299859,0.19183 0.262129,0.37116 -0.03773,0.17934 0.10358,0.39214 0.314023,0.47289 0.220849,0.0847 0.314742,0.32372 0.222074,0.56521 -0.0883,0.23011 -0.05102,0.35069 0.08285,0.26795 0.136677,-0.0845 0.243401,0.47656 0.243401,1.27952 0,0.78646 -0.109141,1.42994 -0.242535,1.42994 -0.133394,0 -0.178215,0.0643 -0.0996,0.14293 0.251198,0.2512 -1.494947,1.86231 -1.884079,1.73838 -0.205773,-0.0655 -0.30644,-0.01 -0.223703,0.12425 0.08507,0.13765 -0.52833,0.2434 -1.411805,0.2434 -0.859229,0 -1.565437,-0.0595 -1.569351,-0.13229 z m 2.388367,-1.10244 c 0,-0.16977 0.06727,-0.2414 0.149501,-0.15917 0.195382,0.19538 1.369944,-0.92691 1.241014,-1.18579 -0.05436,-0.10914 -0.0025,-0.19844 0.115224,-0.19844 0.117729,0 0.214052,-0.41672 0.214052,-0.92604 0,-0.50932 -0.10914,-0.92604 -0.242535,-0.92604 -0.133394,0 -0.173081,-0.0695 -0.08819,-0.15434 0.187811,-0.18781 -0.911446,-1.32778 -1.190625,-1.23472 -0.109141,0.0364 -0.198437,-0.0529 -0.198437,-0.19844 0,-0.14552 -0.357188,-0.26458 -0.793751,-0.26458 -0.436562,0 -0.79375,0.12609 -0.79375,0.2802 0,0.1541 -0.119062,0.20661 -0.264583,0.11667 -0.145521,-0.0899 -0.264583,-0.0304 -0.264583,0.13229 0,0.1627 -0.105572,0.23057 -0.234604,0.15082 -0.291346,-0.18006 -0.884316,0.49415 -0.645045,0.73342 0.09575,0.0958 0.02816,0.1741 -0.150202,0.1741 -0.178363,0 -0.250711,0.11906 -0.160774,0.26458 0.08994,0.14552 0.03743,0.26458 -0.116677,0.26458 -0.154109,0 -0.280198,0.29766 -0.280198,0.66146 0,0.3638 0.126089,0.66146 0.280198,0.66146 0.154109,0 0.206614,0.11906 0.116677,0.26458 -0.08994,0.14552 -0.03041,0.26459 0.132291,0.26459 0.162698,0 0.230567,0.10557 0.15082,0.2346 -0.07975,0.12903 0.03229,0.38174 0.248969,0.56156 0.216679,0.17983 0.397582,0.22309 0.402007,0.0961 0.0044,-0.12696 0.129404,-0.0225 0.277731,0.23219 0.308457,0.52958 2.095474,0.6612 2.095474,0.15433 z m 8.13846,0.99133 c 0.08274,-0.13387 -0.01793,-0.18978 -0.223703,-0.12425 -0.389132,0.12393 -2.135277,-1.48718 -1.884079,-1.73838 0.07861,-0.0786 0.01517,-0.14293 -0.140978,-0.14293 -0.156151,0 -0.221639,-0.23813 -0.14553,-0.52917 0.07737,-0.29585 0.0081,-0.52916 -0.157062,-0.52916 -0.162493,0 -0.295442,-0.1786 -0.295442,-0.39688 0,-0.21828 0.132949,-0.39687 0.295442,-0.39687 0.16518,0 0.23443,-0.23332 0.157062,-0.52917 -0.07611,-0.29104 -0.01062,-0.52917 0.14553,-0.52917 0.156151,0 0.219591,-0.0643 0.140978,-0.14293 -0.251198,-0.2512 1.494947,-1.86231 1.884079,-1.73838 0.205773,0.0655 0.306357,0.01 0.22352,-0.12424 -0.08519,-0.13767 0.527796,-0.24341 1.411064,-0.24341 0.858925,0 1.562013,0.0963 1.562418,0.21406 5.29e-4,0.11773 0.119803,0.14047 0.265324,0.0505 0.145521,-0.0899 0.264583,-0.0345 0.264583,0.12322 0,0.15772 0.29853,0.40025 0.663395,0.53897 0.364869,0.13873 0.648425,0.34414 0.630127,0.45647 -0.08327,0.51123 0.05073,0.88376 0.269303,0.74867 0.131951,-0.0816 0.172726,0.10864 0.09062,0.42263 -0.102304,0.39121 -0.0529,0.51133 0.156966,0.38163 0.210045,-0.12982 0.306261,0.10655 0.306261,0.75238 0,0.51791 -0.1318,0.94165 -0.292891,0.94165 -0.161089,0 -0.221986,0.18478 -0.135321,0.41062 0.08666,0.22584 0.05235,0.34559 -0.07626,0.2661 -0.128606,-0.0795 -0.304472,0.0396 -0.390814,0.26459 -0.102197,0.26632 -0.04262,0.35469 0.170712,0.2532 0.180234,-0.0857 0.100023,-0.003 -0.17825,0.18469 -0.278272,0.18733 -0.714835,0.53903 -0.970139,0.78157 -0.255305,0.24253 -0.533641,0.37151 -0.61853,0.28663 -0.08489,-0.0849 -0.154339,-0.0452 -0.154339,0.0882 0,0.1334 -0.703006,0.24254 -1.562235,0.24254 -0.883475,0 -1.496876,-0.10575 -1.411805,-0.2434 z m 2.613193,-1.078 c 0.08344,-0.21745 0.244808,-0.33782 0.358592,-0.2675 0.113784,0.0703 0.369197,-0.0723 0.567587,-0.31689 0.309743,-0.38191 0.304631,-0.41611 -0.03617,-0.24205 -0.218281,0.11149 -0.176593,0.0232 0.09264,-0.19619 0.269233,-0.21939 0.411036,-0.52587 0.315114,-0.68108 -0.09592,-0.1552 -0.04831,-0.28218 0.105796,-0.28218 0.154109,0 0.280199,-0.1786 0.280199,-0.39688 0,-0.21828 -0.12609,-0.39687 -0.280199,-0.39687 -0.154109,0 -0.212794,-0.10906 -0.130413,-0.24236 0.170376,-0.27567 -1.340556,-1.88703 -1.561891,-1.6657 -0.07929,0.0793 -0.144163,0.005 -0.144163,-0.16451 0,-0.16978 -0.357188,-0.30868 -0.79375,-0.30868 -0.436563,0 -0.79375,0.11906 -0.79375,0.26458 0,0.14552 -0.0893,0.23776 -0.198438,0.20497 -0.109141,-0.0328 -0.496094,0.23511 -0.859896,0.59532 -0.932434,0.92322 -0.905467,2.51108 0.05895,3.47113 0.386501,0.38475 0.769477,0.63279 0.851057,0.55121 0.08158,-0.0816 0.148327,-0.009 0.148327,0.16035 0,0.46784 1.837875,0.38899 2.020403,-0.0867 z m 1.154597,-3.93787 c 0,-0.0549 -0.20836,-0.2633 -0.463021,-0.46302 -0.419645,-0.32911 -0.429004,-0.31975 -0.0999,0.0999 0.345643,0.44073 0.562917,0.58089 0.562917,0.36313 z m -8.353274,4.60228 c 0,-0.37948 0.1747,-0.53364 0.604762,-0.53364 0.332619,0 0.694058,-0.0298 0.803199,-0.0661 0.109141,-0.0364 0.233251,0.17707 0.2758,0.47433 0.06331,0.44229 -0.08262,0.55126 -0.803199,0.59978 -0.726234,0.0489 -0.880562,-0.0342 -0.880562,-0.47433 z m 2.904177,-0.3352 -0.504028,-0.59531 0.595312,0.50403 c 0.559447,0.47366 0.715762,0.68659 0.504028,0.68659 -0.05021,0 -0.318097,-0.26789 -0.595312,-0.59531 z m 14.709513,0.49542 c 0,-0.0549 0.20836,-0.2633 0.463021,-0.46302 0.419645,-0.32911 0.429004,-0.31975 0.0999,0.0999 -0.345643,0.44073 -0.562917,0.58089 -0.562917,0.36313 z m -19.314583,-0.26459 c 0,-0.0549 0.208359,-0.2633 0.463021,-0.46302 0.419644,-0.3291 0.429002,-0.31975 0.09989,0.0999 -0.345643,0.44073 -0.562915,0.58089 -0.562915,0.36312 z m 4.233333,-5.29166 c 0,-0.0549 0.20836,-0.2633 0.463021,-0.46302 0.419644,-0.32911 0.429002,-0.31975 0.0999,0.0999 -0.345644,0.44073 -0.562916,0.58089 -0.562916,0.36313 z"
         id="path870"
         inkscape:connector-curvature="0" />
      <path
         style="fill:#001d7b;stroke-width:0.26458332"
         d="m 87.093925,145.61723 c 0.190995,-0.0764 0.419198,-0.067 0.507119,0.0209 0.08792,0.0879 -0.06835,0.15045 -0.347265,0.13896 -0.308227,-0.0127 -0.37092,-0.0754 -0.159854,-0.15985 z m 1.192628,-1.40676 c 0,-0.94589 0.04802,-1.33284 0.106715,-0.8599 0.05869,0.47295 0.05869,1.24685 0,1.7198 -0.05869,0.47294 -0.106715,0.086 -0.106715,-0.8599 z m -25.208131,-1.03109 c 1.810301,-0.19685 3.089247,-0.93375 2.614145,-1.50621 -0.262322,-0.31608 -0.239746,-0.35454 0.125768,-0.21429 0.608978,0.23369 0.414136,0.65602 -0.628596,1.36253 -0.656332,0.4447 -1.220163,0.58547 -2.228561,0.55641 l -1.349935,-0.0389 z m 6.999487,0.10513 c 0.635621,-0.21725 3.059225,-0.30565 2.734381,-0.0997 -0.194222,0.12312 -0.948443,0.21627 -1.676047,0.20701 -0.727604,-0.009 -1.203854,-0.0575 -1.058334,-0.10727 z m 5.688542,0.0308 c 0,-0.0558 0.297656,-0.15834 0.661459,-0.22789 0.363802,-0.0695 0.661458,-0.0239 0.661458,0.10145 0,0.12534 -0.297656,0.22789 -0.661458,0.22789 -0.363803,0 -0.661459,-0.0456 -0.661459,-0.10145 z m 4.277078,-0.1305 c -0.206619,-0.13097 0.232474,-0.17548 1.058335,-0.10727 1.938653,0.16012 2.202024,0.29412 0.617712,0.31428 -0.727604,0.009 -1.481825,-0.0839 -1.676047,-0.20701 z m 9.299659,-0.23107 c -0.277641,-0.25466 -0.334211,-0.34574 -0.125712,-0.2024 0.208503,0.14334 0.988018,0.33494 1.732262,0.42577 l 1.353172,0.16514 -1.227461,0.0373 c -0.840835,0.0255 -1.386459,-0.10859 -1.732261,-0.42577 z m -20.784846,-0.39688 c -0.342668,-0.32742 -0.438604,-0.46315 -0.213191,-0.30162 0.225413,0.16153 0.647967,0.4258 0.939008,0.58727 0.291042,0.16147 0.386978,0.2972 0.213192,0.30162 -0.173786,0.004 -0.59634,-0.25984 -0.939009,-0.58727 z m 5.356026,-0.33073 c 0.341774,-0.3638 0.680939,-0.66145 0.753699,-0.66145 0.07276,0 -0.147342,0.29765 -0.489116,0.66145 -0.341774,0.36381 -0.680939,0.66146 -0.753699,0.66146 -0.07276,0 0.147342,-0.29765 0.489116,-0.66146 z m 4.742475,-0.0661 -0.641433,-0.72761 0.727604,0.64144 c 0.680055,0.59951 0.848939,0.81377 0.641433,0.81377 -0.04739,0 -0.374816,-0.32742 -0.727604,-0.7276 z m 5.047108,0.61393 c 0,-0.0728 0.238125,-0.25973 0.529167,-0.41549 0.291042,-0.15576 0.529167,-0.22367 0.529167,-0.15091 0,0.0728 -0.238125,0.25973 -0.529167,0.41549 -0.291042,0.15576 -0.529167,0.22367 -0.529167,0.15091 z m 9.789584,-0.54779 c 0.341775,-0.3638 0.680939,-0.66145 0.7537,-0.66145 0.07276,0 -0.147341,0.29765 -0.489117,0.66145 -0.341775,0.36381 -0.68094,0.66146 -0.7537,0.66146 -0.07276,0 0.147341,-0.29765 0.489117,-0.66146 z M 62.60343,142.176 c 0.254662,-0.0665 0.67138,-0.0665 0.926042,0 0.254661,0.0666 0.0463,0.121 -0.463021,0.121 -0.509323,0 -0.717682,-0.0545 -0.463021,-0.121 z m 7.51235,-0.0209 c -0.06911,-0.11182 0.340585,-0.15884 0.910427,-0.1045 0.569843,0.0543 1.036078,0.14584 1.036078,0.20332 0,0.19707 -1.820761,0.10465 -1.946505,-0.0988 z m 6.179838,-0.0613 c -0.615754,-0.1972 -0.621403,-0.21366 -0.08176,-0.23821 0.318834,-0.0145 0.653282,0.0927 0.743219,0.23821 0.08994,0.14552 0.126729,0.25272 0.08176,0.23821 -0.04497,-0.0145 -0.379417,-0.1217 -0.743219,-0.23821 z m 4.497917,0.16009 c 0,-0.0575 0.466235,-0.14897 1.036076,-0.20331 0.569844,-0.0543 0.979535,-0.007 0.910429,0.1045 -0.125743,0.20346 -1.946505,0.29588 -1.946505,0.0988 z m 9.591146,-0.0779 c 0.254661,-0.0665 0.67138,-0.0665 0.926041,0 0.254662,0.0666 0.0463,0.121 -0.463021,0.121 -0.509323,0 -0.717682,-0.0545 -0.46302,-0.121 z m -30.76312,-0.48547 c -0.184076,-0.22179 -0.283444,-0.4545 -0.220818,-0.51713 0.06263,-0.0626 0.259194,0.11885 0.43682,0.40327 0.384126,0.61508 0.256018,0.68261 -0.216002,0.11386 z m 32.284474,0.2896 c 0,-0.0728 0.238125,-0.25973 0.529166,-0.41549 0.291042,-0.15576 0.529167,-0.22367 0.529167,-0.15091 0,0.0728 -0.238125,0.25973 -0.529167,0.41549 -0.291041,0.15576 -0.529166,0.22367 -0.529166,0.15091 z m -30.99,-0.61393 c -0.329107,-0.41965 -0.319749,-0.429 0.09989,-0.0999 0.254662,0.19972 0.463021,0.40808 0.463021,0.46302 0,0.21777 -0.217272,0.0776 -0.562916,-0.36312 z m 8.202084,0 c -0.329108,-0.41965 -0.319749,-0.429 0.0999,-0.0999 0.254661,0.19972 0.46302,0.40808 0.46302,0.46302 0,0.21777 -0.217272,0.0776 -0.562915,-0.36312 z m 14.056666,0.36312 c 0,-0.0549 0.208359,-0.2633 0.46302,-0.46302 0.419645,-0.3291 0.429004,-0.31975 0.0999,0.0999 -0.345644,0.44073 -0.562917,0.58089 -0.562917,0.36312 z m 1.873326,-0.42927 c 0.385713,-0.80989 0.507924,-0.96 0.507924,-0.62383 0,0.14196 -0.185161,0.48923 -0.411472,0.7717 -0.387977,0.48427 -0.393486,0.47583 -0.09645,-0.14787 z m -5.985247,-0.54677 c -0.09592,-0.1552 -0.117656,-0.33893 -0.0483,-0.40828 0.06936,-0.0694 0.196603,0.0576 0.282774,0.28218 0.178907,0.46623 0.02642,0.54824 -0.234472,0.1261 z m 14.09497,-0.26819 c 0.09356,-0.35777 0.213492,-0.4777 0.279546,-0.27954 0.06363,0.19088 -0.01011,0.47285 -0.16386,0.6266 -0.196339,0.19634 -0.230772,0.093 -0.115686,-0.34706 z m -18.138908,-0.68475 c -0.02542,-0.60656 -0.114746,-1.32094 -0.198494,-1.5875 -0.143078,-0.45541 -0.134185,-0.45651 0.147339,-0.0183 0.164784,0.25653 0.254106,0.97091 0.198494,1.5875 l -0.101115,1.1211 z m 2.620497,0.55162 c 0.01269,-0.30822 0.07539,-0.37092 0.159852,-0.15985 0.07643,0.19099 0.06703,0.4192 -0.02089,0.50712 -0.08792,0.0879 -0.150453,-0.0684 -0.138964,-0.34727 z m 16.933334,0 c 0.0127,-0.30822 0.07539,-0.37092 0.159851,-0.15985 0.07643,0.19099 0.06703,0.4192 -0.02088,0.50712 -0.08792,0.0879 -0.150453,-0.0684 -0.138965,-0.34727 z m -27.485976,-0.7717 c 0.0054,-0.43656 0.06469,-0.58312 0.131774,-0.32569 0.06708,0.25743 0.06267,0.61462 -0.0098,0.79375 -0.07248,0.17913 -0.127363,-0.0315 -0.121971,-0.46806 z m 1.322917,0 c 0.0054,-0.43656 0.06469,-0.58312 0.131774,-0.32569 0.06708,0.25743 0.06267,0.61462 -0.0098,0.79375 -0.07248,0.17913 -0.127363,-0.0315 -0.121971,-0.46806 z m -8.232776,-0.022 c 0.0127,-0.30822 0.07539,-0.37092 0.159853,-0.15985 0.07643,0.19099 0.06703,0.4192 -0.02089,0.50712 -0.08792,0.0879 -0.150453,-0.0684 -0.138964,-0.34727 z m 24.077085,0 c 0.0127,-0.30822 0.07539,-0.37092 0.15985,-0.15985 0.07643,0.19099 0.06703,0.4192 -0.02087,0.50712 -0.08792,0.0879 -0.150453,-0.0684 -0.138965,-0.34727 z m -6.614584,-0.79375 c 0.01269,-0.30822 0.07539,-0.37092 0.159852,-0.15985 0.07643,0.19099 0.06703,0.4192 -0.02089,0.50712 -0.08792,0.0879 -0.150453,-0.0684 -0.138964,-0.34727 z m 15.387564,-0.31141 c -0.308917,-0.65897 -0.301575,-0.68035 0.09686,-0.28192 0.237112,0.23711 0.387527,0.55798 0.334256,0.71304 -0.05327,0.15505 -0.247272,-0.0389 -0.431112,-0.43112 z m 1.54577,0.31141 c 0.0127,-0.30822 0.07539,-0.37092 0.159851,-0.15985 0.07643,0.19099 0.06703,0.4192 -0.02088,0.50712 -0.08792,0.0879 -0.150453,-0.0684 -0.138965,-0.34727 z m -34.144094,0.0708 c -0.01717,-0.46069 0.560372,-1.24052 1.122498,-1.51565 l 0.589248,-0.28842 -0.560844,0.48078 c -0.308464,0.26443 -0.691797,0.71891 -0.85185,1.00995 -0.160053,0.29104 -0.294627,0.43204 -0.299052,0.31333 z m 18.512788,-0.16543 c 0,-0.13694 0.117699,-0.32172 0.261553,-0.41062 0.149982,-0.0927 0.194338,0.0135 0.103984,0.24897 -0.175892,0.45836 -0.365537,0.54223 -0.365537,0.16165 z m 6.151388,-0.61093 c -0.284451,-0.77743 -0.277325,-0.81064 0.07429,-0.34631 0.336486,0.44436 0.535204,1.2062 0.314626,1.2062 -0.04086,0 -0.215868,-0.38695 -0.388911,-0.85989 z m 3.902779,-0.33073 c 0.341776,-0.3638 0.68094,-0.66146 0.7537,-0.66146 0.07276,0 -0.147341,0.29766 -0.489117,0.66146 -0.341775,0.3638 -0.680939,0.66146 -0.7537,0.66146 -0.07276,0 0.147341,-0.29766 0.489117,-0.66146 z m -29.633334,0.20878 c 0,-0.15195 0.20836,-0.43969 0.463021,-0.63941 0.428296,-0.33589 0.433911,-0.32344 0.07487,0.16604 -0.213484,0.29105 -0.421843,0.57878 -0.463021,0.63942 -0.04118,0.0606 -0.07487,-0.0141 -0.07487,-0.16605 z m 5.134237,-0.40722 -0.504028,-0.59531 0.57864,0.48894 c 0.325907,0.27538 0.71934,0.40198 0.900776,0.28985 0.205536,-0.12703 0.253803,-0.0885 0.133349,0.10637 -0.276563,0.44749 -0.543559,0.37769 -1.108737,-0.28985 z m 4.390763,0.49542 c 0,-0.0549 0.20836,-0.2633 0.463021,-0.46302 0.419644,-0.32911 0.429003,-0.31975 0.09989,0.0999 -0.345643,0.44073 -0.562916,0.58089 -0.562916,0.36313 z m 14.518334,-0.36313 c -0.329108,-0.41964 -0.319749,-0.429 0.0999,-0.0999 0.254661,0.19972 0.463021,0.40808 0.463021,0.46302 0,0.21776 -0.217274,0.0776 -0.562917,-0.36313 z m 10.643645,-0.14432 c -0.334677,-0.5573 -0.329039,-0.56294 0.126558,-0.12656 0.262263,0.2512 0.419889,0.51367 0.350282,0.58328 -0.06961,0.0696 -0.284184,-0.13592 -0.47684,-0.45672 z m -26.228198,-0.17167 c 0.151423,-0.28294 0.406087,-0.59525 0.56592,-0.69404 0.159833,-0.0988 0.08597,0.13272 -0.164144,0.51444 -0.529596,0.80826 -0.803834,0.93085 -0.401776,0.1796 z m -1.844197,0.0255 c 0,-0.17191 -0.386953,-0.5485 -0.859896,-0.83686 -0.472943,-0.28836 -0.717707,-0.52473 -0.543921,-0.52527 0.474831,-0.002 1.830415,1.24711 1.602254,1.4758 -0.10914,0.1094 -0.198437,0.0582 -0.198437,-0.11367 z m 8.321121,-0.0617 c -0.09723,-0.15732 -0.550738,-0.51406 -1.007802,-0.79276 -0.457065,-0.27871 -0.684078,-0.50718 -0.504473,-0.50772 0.338599,-0.001 2.195414,1.56502 1.871873,1.57875 -0.100553,0.004 -0.262371,-0.12096 -0.359598,-0.27827 z m 4.378879,-0.37543 c 0.341774,-0.3638 0.680939,-0.66146 0.753699,-0.66146 0.07276,0 -0.147342,0.29766 -0.489116,0.66146 -0.341774,0.3638 -0.680939,0.66146 -0.753699,0.66146 -0.07276,0 0.147342,-0.29766 0.489116,-0.66146 z m -16.073438,-0.0501 c 0.254662,-0.0665 0.67138,-0.0665 0.926042,0 0.254661,0.0666 0.0463,0.12101 -0.463021,0.12101 -0.509323,0 -0.717682,-0.0545 -0.463021,-0.12101 z m 8.202084,0 c 0.254661,-0.0665 0.67138,-0.0665 0.926041,0 0.254662,0.0666 0.0463,0.12101 -0.463021,0.12101 -0.509322,0 -0.717682,-0.0545 -0.46302,-0.12101 z m 10.31875,0 c 0.254661,-0.0665 0.67138,-0.0665 0.926041,0 0.254662,0.0666 0.0463,0.12101 -0.46302,0.12101 -0.509323,0 -0.717683,-0.0545 -0.463021,-0.12101 z m 9.260417,0 c 0.254661,-0.0665 0.67138,-0.0665 0.926041,0 0.254662,0.0666 0.0463,0.12101 -0.463021,0.12101 -0.509323,0 -0.717682,-0.0545 -0.46302,-0.12101 z m -30.228647,-0.18618 c 0,-0.0572 0.184778,-0.17489 0.410617,-0.26155 0.23546,-0.0904 0.341663,-0.046 0.248969,0.10398 -0.155379,0.25141 -0.659586,0.37186 -0.659586,0.15757 z m 23.682082,-0.15757 c -0.09269,-0.14998 0.01352,-0.19433 0.248968,-0.10398 0.458369,0.17589 0.542234,0.36554 0.16165,0.36554 -0.136933,0 -0.321713,-0.1177 -0.410618,-0.26156 z m 9.260417,0 c -0.09269,-0.14998 0.01352,-0.19433 0.248968,-0.10398 0.458369,0.17589 0.542234,0.36554 0.161649,0.36554 -0.136932,0 -0.321712,-0.1177 -0.410617,-0.26156 z m -31.589117,-0.55662 c 0.201525,-0.12763 0.902191,-0.22448 1.557035,-0.21522 1.410781,0.0199 1.160975,0.14725 -0.630993,0.32156 -0.796138,0.0774 -1.151747,0.0366 -0.926042,-0.10634 z m 9.035152,-0.16543 c 0.402183,-0.0608 0.997496,-0.0592 1.322917,0.004 0.325421,0.0628 -0.0036,0.11256 -0.731242,0.11058 -0.727604,-0.002 -0.993858,-0.0534 -0.591675,-0.11419 z m 10.583334,0 c 0.402182,-0.0608 0.997495,-0.0592 1.322916,0.004 0.325422,0.0628 -0.0037,0.11256 -0.731242,0.11058 -0.727604,-0.002 -0.993858,-0.0534 -0.591674,-0.11419 z m 9.38907,0.003 c 0.327422,-0.0631 0.863203,-0.0631 1.190625,0 0.327422,0.0631 0.05953,0.11466 -0.595312,0.11466 -0.654844,0 -0.922735,-0.0516 -0.595313,-0.11466 z"
         id="path868"
         inkscape:connector-curvature="0" />
    </g>
  </g>
</svg>
