<?xml version="1.0" encoding="UTF-8" standalone="no"?>
<!-- Created with Inkscape (http://www.inkscape.org/) -->

<svg
   xmlns:dc="http://purl.org/dc/elements/1.1/"
   xmlns:cc="http://creativecommons.org/ns#"
   xmlns:rdf="http://www.w3.org/1999/02/22-rdf-syntax-ns#"
   xmlns:svg="http://www.w3.org/2000/svg"
   xmlns="http://www.w3.org/2000/svg"
   xmlns:sodipodi="http://sodipodi.sourceforge.net/DTD/sodipodi-0.dtd"
   xmlns:inkscape="http://www.inkscape.org/namespaces/inkscape"
   width="191.9908mm"
   height="24.290207mm"
   viewBox="0 0 191.9908 24.290207"
   version="1.1"
   id="svg8"
   inkscape:version="0.92.4 (unknown)"
   sodipodi:docname="lottevn.svg">
  <defs
     id="defs2" />
  <sodipodi:namedview
     id="base"
     pagecolor="#ffffff"
     bordercolor="#666666"
     borderopacity="1.0"
     inkscape:pageopacity="0.0"
     inkscape:pageshadow="2"
     inkscape:zoom="0.70136719"
     inkscape:cx="382.37613"
     inkscape:cy="-33.104922"
     inkscape:document-units="mm"
     inkscape:current-layer="layer1"
     showgrid="false"
     fit-margin-top="0"
     fit-margin-left="0"
     fit-margin-right="0"
     fit-margin-bottom="0"
     inkscape:window-width="1366"
     inkscape:window-height="692"
     inkscape:window-x="0"
     inkscape:window-y="21"
     inkscape:window-maximized="1" />
  <metadata
     id="metadata5">
    <rdf:RDF>
      <cc:Work
         rdf:about="">
        <dc:format>image/svg+xml</dc:format>
        <dc:type
           rdf:resource="http://purl.org/dc/dcmitype/StillImage" />
        <dc:title></dc:title>
      </cc:Work>
    </rdf:RDF>
  </metadata>
  <g
     inkscape:label="Layer 1"
     inkscape:groupmode="layer"
     id="layer1"
     transform="translate(1.9387078,-115.78412)">
    <g
       id="g511"
       transform="translate(-3.017916,-19.993688)">
      <path
         style="fill:#d1d1d3;stroke-width:0.26458335"
         d="m 12.135151,159.09731 8.78369,-0.0752 0.105085,-1.38551 0.105082,-1.38552 -0.02524,1.45521 -0.02524,1.45521 -8.863542,0.006 -8.8635412,0.006 8.7836932,-0.0752 z m 104.510409,-1.1e-4 9.31285,-0.0747 0.10509,-1.38569 0.10509,-1.3857 -0.0252,1.45521 -0.0252,1.45521 -9.39271,0.005 -9.39271,0.005 9.31285,-0.0747 z m 52.85256,-0.1353 c -0.0701,-0.18254 -0.0945,-4.67715 -0.0544,-9.98802 l 0.0729,-9.65614 0.0627,9.85573 0.0627,9.85573 h 2.90588 2.90587 l 0.0754,-6.68073 0.0754,-6.68073 0.0614,6.81302 0.0614,6.81302 h -3.05101 c -2.20241,0 -3.08644,-0.0923 -3.17837,-0.33188 z m 16.4059,0.005 c -0.0724,-0.18854 -0.0976,-3.43646 -0.0561,-7.21761 l 0.0754,-6.87482 0.0615,7.0776 0.0615,7.07761 h 3.43565 3.43564 l 0.0762,-7.87136 0.0762,-7.87135 -0.006,7.9375 -0.006,7.9375 -3.51107,0.0739 c -2.68479,0.0565 -3.54203,-0.007 -3.64261,-0.26892 z m -92.871216,-9.7268 c 0,-5.45704 0.03518,-7.68946 0.07818,-4.96094 0.043,2.72851 0.043,7.19336 0,9.92187 -0.043,2.72852 -0.07818,0.4961 -0.07818,-4.96093 z m 56.872686,9.19427 -0.50403,-0.59532 0.59531,0.50403 c 0.55945,0.47366 0.71576,0.6866 0.50403,0.6866 -0.0502,0 -0.3181,-0.26789 -0.59531,-0.59531 z m -38.10351,-6.54844 c 0,-1.96453 0.0417,-2.7682 0.0926,-1.78594 0.0509,0.98227 0.0509,2.58961 0,3.57188 -0.0509,0.98226 -0.0926,0.17859 -0.0926,-1.78594 z m 22.84896,-0.43981 c 0.1819,-0.0734 0.47955,-0.0734 0.66146,0 0.1819,0.0734 0.0331,0.13345 -0.33073,0.13345 -0.36381,0 -0.51263,-0.0601 -0.33073,-0.13345 z m -2.18282,-5.91019 c 0.26339,-0.29104 0.53843,-0.52917 0.61119,-0.52917 0.0728,0 -0.0832,0.23813 -0.3466,0.52917 -0.26339,0.29104 -0.53842,0.52916 -0.61118,0.52916 -0.0728,0 0.0832,-0.23812 0.34659,-0.52916 z m -20.6719,-2.38125 c 0,-1.52797 0.0437,-2.15305 0.0972,-1.38906 0.0534,0.76398 0.0534,2.01414 0,2.77812 -0.0534,0.76399 -0.0972,0.13891 -0.0972,-1.38906 z m 22.72243,1.40511 c 0.25466,-0.0666 0.67138,-0.0666 0.92604,0 0.25466,0.0665 0.0463,0.121 -0.46302,0.121 -0.50933,0 -0.71769,-0.0545 -0.46302,-0.121 z m 49.65549,-2.3973 -0.64143,-0.7276 0.7276,0.64143 c 0.40018,0.35279 0.72761,0.68021 0.72761,0.7276 0,0.20751 -0.21426,0.0386 -0.81378,-0.64143 z m -7.38831,0.36313 c 0,-0.0549 0.20836,-0.2633 0.46302,-0.46303 0.41965,-0.3291 0.42901,-0.31974 0.0999,0.0999 -0.34564,0.44073 -0.56292,0.58089 -0.56292,0.36313 z m 15.89589,-0.31903 c 0.0127,-0.30823 0.0754,-0.37092 0.15985,-0.15985 0.0764,0.19099 0.067,0.4192 -0.0209,0.50711 -0.0879,0.0879 -0.15046,-0.0684 -0.13897,-0.34726 z m -17.48339,-3.80179 v -1.57487 l -1.65364,-0.0939 -1.65365,-0.0939 1.78594,-0.051 1.78594,-0.051 v 1.50712 1.50711 l 0.99218,-0.91145 0.99219,-0.91145 -1.04588,1.12413 c -0.57524,0.61827 -1.08126,1.12413 -1.12448,1.12413 -0.0432,0 -0.0786,-0.7087 -0.0786,-1.57488 z M 51.188034,137.86253 c 0,-0.80036 0.0496,-1.12779 0.110223,-0.7276 0.06062,0.40018 0.06062,1.05502 0,1.45521 -0.06062,0.40018 -0.110223,0.0728 -0.110223,-0.72761 z m 74.877086,0 c 0,-0.80036 0.0496,-1.12779 0.11022,-0.7276 0.0606,0.40018 0.0606,1.05502 0,1.45521 -0.0606,0.40018 -0.11022,0.0728 -0.11022,-0.72761 z m 64.5862,0.46302 -0.50403,-0.59531 0.59531,0.50403 c 0.32743,0.27721 0.59532,0.5451 0.59532,0.59531 0,0.21173 -0.21294,0.0554 -0.6866,-0.50403 z m -48.97593,-1.71854 c 1.28045,-0.0486 3.30451,-0.0484 4.49791,5.3e-4 1.19341,0.0489 0.14576,0.0887 -2.32809,0.0884 -2.47386,-2.6e-4 -3.45027,-0.0403 -2.16982,-0.0889 z m 21.9554,0.002 c 0.69562,-0.0547 1.76718,-0.054 2.38125,0.002 0.61408,0.0555 0.0449,0.10023 -1.26475,0.0994 -1.30969,-7.9e-4 -1.81211,-0.0462 -1.1165,-0.10089 z m 17.60335,-0.25052 c 0.19099,-0.0764 0.4192,-0.067 0.50712,0.0209 0.0879,0.0879 -0.0684,0.15045 -0.34727,0.13896 -0.30822,-0.0127 -0.37092,-0.0754 -0.15985,-0.15985 z m 2.76159,-0.26623 c 0.25466,-0.0665 0.67138,-0.0665 0.92604,0 0.25466,0.0666 0.0463,0.12101 -0.46302,0.12101 -0.50932,0 -0.71768,-0.0545 -0.46302,-0.12101 z"
         id="path525"
         inkscape:connector-curvature="0" />
      <path
         style="fill:#f6a4a7;stroke-width:0.26458335"
         d="m 62.287395,159.09758 c 0.982266,-0.0509 2.58961,-0.0509 3.571875,0 0.982266,0.0509 0.178594,0.0926 -1.785937,0.0926 -1.964532,0 -2.768203,-0.0417 -1.785938,-0.0926 z m 23.602389,-0.13568 c -0.07005,-0.18254 -0.09454,-4.67715 -0.05444,-9.98802 l 0.07292,-9.65614 0.06274,9.84805 0.06274,9.84805 3.50573,0.0822 3.505729,0.0822 -3.514032,0.0578 c -2.617441,0.043 -3.546528,-0.0269 -3.641392,-0.27411 z m 19.048326,-11.0452 c 0,-5.02047 0.0356,-7.0743 0.0791,-4.56406 0.0435,2.51023 0.0435,6.61789 0,9.12812 -0.0435,2.51024 -0.0791,0.45641 -0.0791,-4.56406 z m -73.83054,7.34219 -0.504029,-0.59532 0.595312,0.50403 c 0.559446,0.47366 0.715762,0.6866 0.504029,0.6866 -0.05021,0 -0.318098,-0.26789 -0.595312,-0.59531 z m 18.984621,-7.34219 c 0,-0.3638 0.06005,-0.51263 0.133453,-0.33073 0.0734,0.1819 0.0734,0.47956 0,0.66146 -0.0734,0.1819 -0.133453,0.0331 -0.133453,-0.33073 z m -18.959483,-7.40834 c 0.26339,-0.29104 0.538421,-0.52916 0.611182,-0.52916 0.07276,0 -0.08321,0.23812 -0.346599,0.52916 -0.26339,0.29105 -0.538422,0.52917 -0.611182,0.52917 -0.07276,0 0.08321,-0.23812 0.346599,-0.52917 z m 84.865102,-1.25603 c 1.85539,-0.0455 4.89149,-0.0455 6.74688,0 1.85539,0.0455 0.33734,0.0827 -3.37344,0.0827 -3.71078,0 -5.22883,-0.0372 -3.37344,-0.0827 z m -38.086859,-1.3898 c 0,-0.80036 0.0496,-1.12779 0.110223,-0.7276 0.06062,0.40018 0.06062,1.05502 0,1.45521 -0.06062,0.40018 -0.110223,0.0728 -0.110223,-0.72761 z"
         id="path523"
         inkscape:connector-curvature="0" />
      <path
         style="fill:#a6a7ab;stroke-width:0.26458335"
         d="m 150.98896,159.05633 c -0.29104,-0.12609 -0.72665,-0.45167 -0.96801,-0.72351 -0.35818,-0.40341 -7.27104,-14.83374 -9.64786,-20.13956 l -0.62225,-1.38906 h 4.19899 4.19899 l 3.49388,7.87135 c 1.92162,4.32925 3.57269,7.95363 3.66902,8.0542 0.0963,0.10056 1.77534,-3.44155 3.73111,-7.87136 l 3.55596,-8.05419 h 2.05338 2.05338 l -1.2737,2.84427 c -6.60138,14.74148 -8.3548,18.52783 -8.79122,18.98385 -0.41957,0.43841 -0.90228,0.53981 -2.81446,0.59122 -1.26943,0.0341 -2.54617,-0.0411 -2.83721,-0.16721 z m 18.65312,-9.96215 c 0,-10.9024 0.0242,-11.0847 1.57884,-11.88863 0.44282,-0.22899 1.46353,-0.40135 2.37677,-0.40135 h 1.60064 v 1.61405 1.61405 l 1.45216,-1.32719 c 2.03587,-1.86068 3.42579,-2.29104 7.41138,-2.29479 2.7574,-0.003 3.35312,0.0776 4.52921,0.6099 1.67051,0.75606 2.79748,1.89158 3.59318,3.62044 0.58933,1.28048 0.61142,1.59664 0.68859,9.85573 l 0.0797,8.53281 h -3.43783 -3.43783 l -0.0815,-7.3862 -0.0815,-7.3862 -0.79729,-1.14661 c -2.20672,-3.17357 -6.70862,-3.08306 -8.72771,0.17547 l -0.79375,1.281 -0.0883,7.23127 -0.0882,7.23127 h -2.88832 -2.88832 z m -36.46227,1.72615 c -1.84715,-1.12617 -2.06172,-3.59089 -0.45269,-5.19992 0.76199,-0.76199 1.05526,-0.87871 2.20779,-0.87871 1.61861,0 2.80329,0.85567 3.2065,2.31599 0.83521,3.02487 -2.28751,5.39299 -4.9616,3.76264 z"
         id="path521"
         inkscape:connector-curvature="0" />
      <path
         style="fill:#f37d81;stroke-width:0.26458335"
         d="m 67.640376,149.10732 0.0048,-9.78958 3.836459,-0.0106 3.836458,-0.0106 -3.767101,0.0838 -3.767097,0.0838 -0.07419,9.71638 -0.07419,9.71638 0.0048,-9.78958 z M 7.8363568,146.06461 c 0,-5.16598 0.035444,-7.27934 0.078761,-4.69635 0.043318,2.583 0.043318,6.80971 0,9.39271 -0.043318,2.58299 -0.078761,0.46963 -0.078761,-4.69636 z m 20.5600012,1.85209 c 0,-0.3638 0.06006,-0.51263 0.133453,-0.33073 0.0734,0.1819 0.0734,0.47956 0,0.66146 -0.0734,0.1819 -0.133453,0.0331 -0.133453,-0.33073 z m 97.400562,-0.66146 c 0.002,-0.7276 0.0534,-0.99386 0.11419,-0.59167 0.0608,0.40218 0.0592,0.99749 -0.004,1.32291 -0.0628,0.32542 -0.11256,-0.004 -0.11057,-0.73124 z m -72.254157,-8.00201 c 1.265946,-0.0484 3.409071,-0.0486 4.7625,-5.3e-4 1.353428,0.0481 0.317653,0.0877 -2.301722,0.088 -2.619375,2.6e-4 -3.726725,-0.0391 -2.460778,-0.0875 z m 26.48381,-8e-5 c 1.134435,-0.0497 2.920373,-0.0494 3.96875,7.9e-4 1.048374,0.0501 0.120197,0.0908 -2.062615,0.0904 -2.182813,-2.6e-4 -3.040573,-0.0414 -1.906135,-0.0911 z m 17.569084,0.002 4.550453,-0.0823 0.10275,-1.31822 0.10275,-1.31823 -0.023,1.39056 -0.023,1.39056 -4.630207,0.01 -4.630208,0.01 4.55045,-0.0823 z"
         id="path519"
         inkscape:connector-curvature="0" />
      <path
         style="fill:#f06267;stroke-width:0.26458335"
         d="m 40.260833,155.7543 c 0,-0.0549 0.208359,-0.2633 0.463021,-0.46302 0.419645,-0.32911 0.429003,-0.31975 0.0999,0.0999 -0.345644,0.44073 -0.562917,0.58089 -0.562917,0.36312 z m -18.45945,-7.8376 c 0,-0.50932 0.05445,-0.71768 0.121002,-0.46302 0.06655,0.25466 0.06655,0.67138 0,0.92604 -0.06655,0.25466 -0.121002,0.0463 -0.121002,-0.46302 z m 18.690283,-7.60677 c -0.329108,-0.41965 -0.319749,-0.42901 0.0999,-0.0999 0.44073,0.34564 0.580887,0.56292 0.363125,0.56292 -0.05494,0 -0.263301,-0.20836 -0.463021,-0.46302 z"
         id="path517"
         inkscape:connector-curvature="0" />
      <path
         style="fill:#ec3239;stroke-width:0.26458335"
         d="m 37.036223,159.90679 c 0.190995,-0.0764 0.419201,-0.067 0.507119,0.0209 0.08792,0.0879 -0.06835,0.15045 -0.347265,0.13896 -0.308227,-0.0127 -0.37092,-0.0754 -0.159854,-0.15985 z m 23.717414,-10.66717 c 0,-5.45704 0.03518,-7.68946 0.07819,-4.96094 0.043,2.72851 0.043,7.19336 0,9.92187 -0.043,2.72852 -0.07819,0.4961 -0.07819,-4.96093 z m 44.825533,8.79739 c -0.32911,-0.41964 -0.31975,-0.429 0.0999,-0.0999 0.44073,0.34564 0.58089,0.56291 0.36313,0.56291 -0.0549,0 -0.2633,-0.20836 -0.46302,-0.46302 z m -69.865863,-0.51147 c 0.190994,-0.0764 0.4192,-0.067 0.507119,0.0209 0.08792,0.0879 -0.06835,0.15045 -0.347266,0.13896 -0.308226,-0.0127 -0.370919,-0.0754 -0.159853,-0.15985 z m 80.284503,-1.07529 c 1.85539,-0.0455 4.89149,-0.0455 6.74688,0 1.85539,0.0455 0.33734,0.0827 -3.37344,0.0827 -3.71078,0 -5.22883,-0.0372 -3.37344,-0.0827 z m -0.77793,-10.58353 c 2.00961,-0.045 5.2243,-0.0449 7.14375,2.6e-4 1.91945,0.0451 0.27522,0.082 -3.65384,0.0818 -3.92906,-1.4e-4 -5.49952,-0.0371 -3.48991,-0.0821 z m -39.724988,-7.80308 -0.04448,-1.2541 -12.104687,-0.0716 -12.104688,-0.0716 12.11299,-0.0634 c 13.390142,-0.0701 12.486108,-0.19474 12.290785,1.69471 -0.10038,0.971 -0.107582,0.95975 -0.149924,-0.23409 z m -39.781585,0.14732 c 0.190994,-0.0764 0.4192,-0.067 0.507119,0.0209 0.08792,0.0879 -0.06835,0.15046 -0.347266,0.13897 -0.308226,-0.0127 -0.370919,-0.0754 -0.159853,-0.15985 z M 2.7671492,136.60774 c 0.9883166,-0.051 2.5361291,-0.0507 3.4395833,8e-4 0.9034516,0.0515 0.094829,0.0933 -1.7969415,0.0928 -1.8917708,-5.3e-4 -2.6309611,-0.0426 -1.6426418,-0.0936 z m 81.3665158,-0.002 c 3.393337,-0.0419 8.870212,-0.0418 12.170834,1e-4 3.300619,0.042 0.52425,0.0763 -6.169708,0.0762 -6.693958,-6e-5 -9.394465,-0.0344 -6.001126,-0.0763 z m 27.895395,2.1e-4 c 2.583,-0.0433 6.80972,-0.0433 9.39271,0 2.58299,0.0433 0.46964,0.0788 -4.69635,0.0788 -5.16599,0 -7.27935,-0.0354 -4.69636,-0.0788 z m -74.992837,-0.77646 c 0.190995,-0.0764 0.419201,-0.067 0.507119,0.0209 0.08792,0.0879 -0.06835,0.15045 -0.347265,0.13896 -0.308227,-0.0127 -0.37092,-0.0754 -0.159854,-0.15985 z"
         id="path515"
         inkscape:connector-curvature="0" />
      <path
         style="fill:#eb1b23;stroke-width:0.26458335"
         d="m 33.427479,159.81489 c -4.810909,-0.65786 -8.631883,-3.24255 -10.44166,-7.06324 -0.802426,-1.69404 -0.848945,-1.95897 -0.848945,-4.83495 0,-2.87598 0.04652,-3.14092 0.848945,-4.83495 2.152526,-4.54429 6.840397,-7.14175 12.909389,-7.15287 3.147036,-0.006 4.908293,0.36228 7.423999,1.55134 7.324609,3.46202 8.949923,13.01881 3.180024,18.69842 -2.858796,2.81405 -8.206205,4.30158 -13.071752,3.63625 z m 5.635048,-3.13375 c 5.878914,-3.10499 5.823066,-14.40532 -0.08693,-17.58975 -2.709437,-1.45991 -5.71994,-0.88367 -7.921876,1.51632 -3.581922,3.90408 -3.503928,10.98913 0.162978,14.80527 2.239282,2.33042 4.99211,2.77538 7.845827,1.26816 z M 2.822291,158.77907 C 2.5312493,158.65995 2.0549993,158.29796 1.7639577,157.97464 1.2569366,157.41139 1.2315366,156.9561 1.1569982,147.0955 l -0.07779,-10.2913 H 4.398144 7.7170827 v 9.27781 c 0,5.88945 0.1000283,9.46471 0.2738913,9.78958 0.2590933,0.48412 0.6165189,0.51178 6.614583,0.51178 h 6.340692 v 1.32291 1.32292 l -8.797395,-0.0168 c -4.8385682,-0.009 -9.0355213,-0.11423 -9.326563,-0.23335 z m 58.013116,-9.6056 -0.06937,-9.85573 -4.696354,-0.0722 -4.696354,-0.0722 v -1.18452 -1.18452 H 63.41187 75.450412 v 1.19062 1.19063 h -3.96875 -3.96875 v 9.92187 9.92188 H 64.20884 60.904769 Z m 25.198342,-0.0662 v -9.92187 h -3.96875 -3.96875 v -1.19063 -1.19062 h 12.038542 12.038539 v 1.19062 1.19063 h -4.630206 -4.630208 v 9.92187 9.92188 h -3.439583 -3.439584 z m 19.940001,9.01271 -0.90917,-0.90917 0.0757,-9.56503 0.0757,-9.56503 0.74236,-0.6383 0.74236,-0.6383 h 9.64253 9.64254 v 1.19062 1.19063 h -6.72797 c -5.76357,0 -6.78758,0.0596 -7.14375,0.41577 -0.32947,0.32947 -0.41578,1.04344 -0.41578,3.43959 v 3.0238 h 7.01146 7.01146 v 1.19063 1.19063 h -7.01146 -7.01146 v 3.68916 c 0,3.51234 0.0282,3.70891 0.58804,4.10104 0.49381,0.34588 1.63854,0.41188 7.14375,0.41188 h 6.55571 v 1.19062 1.19063 h -9.55146 -9.55145 z"
         id="path513"
         inkscape:connector-curvature="0" />
    </g>
  </g>
</svg>
